<?xml version="1.0" encoding="UTF-8" standalone="no"?>
<!-- Created with Inkscape (http://www.inkscape.org/) -->

<svg
   xmlns:dc="http://purl.org/dc/elements/1.1/"
   xmlns:cc="http://creativecommons.org/ns#"
   xmlns:rdf="http://www.w3.org/1999/02/22-rdf-syntax-ns#"
   xmlns:svg="http://www.w3.org/2000/svg"
   xmlns="http://www.w3.org/2000/svg"
   xmlns:sodipodi="http://sodipodi.sourceforge.net/DTD/sodipodi-0.dtd"
   xmlns:inkscape="http://www.inkscape.org/namespaces/inkscape"
   width="512"
   height="512"
   viewBox="0 0 135.46666 135.46667"
   version="1.1"
   id="svg1406"
   sodipodi:docname="character.svg"
   inkscape:version="0.92.3 (2405546, 2018-03-11)"
   inkscape:export-filename="/home/dante/Desktop/ggj/bed_maze/Assets/Graphics/character.png"
   inkscape:export-xdpi="96"
   inkscape:export-ydpi="96">
  <defs
     id="defs1400" />
  <sodipodi:namedview
     id="base"
     pagecolor="#ffffff"
     bordercolor="#666666"
     borderopacity="1.0"
     inkscape:pageopacity="0.0"
     inkscape:pageshadow="2"
     inkscape:zoom="1.4"
     inkscape:cx="220.24832"
     inkscape:cy="304.34709"
     inkscape:document-units="mm"
     inkscape:current-layer="layer1"
     showgrid="false"
     units="px"
     inkscape:object-nodes="false"
     inkscape:window-width="1920"
     inkscape:window-height="1056"
     inkscape:window-x="0"
     inkscape:window-y="0"
     inkscape:window-maximized="1" />
  <metadata
     id="metadata1403">
    <rdf:RDF>
      <cc:Work
         rdf:about="">
        <dc:format>image/svg+xml</dc:format>
        <dc:type
           rdf:resource="http://purl.org/dc/dcmitype/StillImage" />
        <dc:title></dc:title>
      </cc:Work>
    </rdf:RDF>
  </metadata>
  <g
     inkscape:label="Layer 1"
     inkscape:groupmode="layer"
     id="layer1"
     transform="translate(0,-161.53332)">
    <path
       style="fill:#2b1100;stroke-width:0.38408452"
       d="m 87.63133,201.76783 c 6.638167,-0.24266 12.183177,4.03914 12.43757,10.99851 0.2544,6.95938 -4.977353,11.24688 -11.615524,11.48954 -6.638186,0.24266 -17.793557,1.79547 -18.047956,-5.16391 -0.09905,-2.70968 -1.973905,-10.21966 0.380476,-13.3338 3.692488,-4.88403 12.791881,-3.84217 16.845434,-3.99034 z"
       id="path1444"
       inkscape:connector-curvature="0"
       sodipodi:nodetypes="ssssss" />
    <path
       sodipodi:nodetypes="ssssss"
       inkscape:connector-curvature="0"
       id="path1446"
       d="m 87.108973,203.51984 c 6.426254,-0.23491 11.786934,3.70959 12.021814,10.13505 0.23488,6.42546 -4.83658,10.39285 -11.262833,10.62776 -6.426268,0.23491 -17.227405,1.68693 -17.462286,-4.73854 -0.09145,-2.50179 -1.894066,-9.433 0.390108,-12.31227 3.582382,-4.51567 12.389038,-3.56855 16.313197,-3.712 z"
       style="fill:#803300;stroke-width:0.36311898" />
    <path
       sodipodi:nodetypes="ssssss"
       inkscape:connector-curvature="0"
       id="path1438"
       d="m 89.001557,233.94192 c 6.63817,-0.24266 12.183183,4.03914 12.437583,10.99851 0.2544,6.95938 -4.977373,11.24688 -11.615537,11.48954 -6.638176,0.24266 -17.793547,1.79547 -18.047946,-5.16391 -0.09905,-2.70968 -1.973905,-10.21966 0.380475,-13.33379 3.692489,-4.88404 12.791872,-3.84218 16.845425,-3.99035 z"
       style="fill:#2b1100;stroke-width:0.38408452" />
    <path
       style="fill:#803300;stroke-width:0.36311898"
       d="m 88.47921,235.69393 c 6.426247,-0.23491 11.78693,3.70959 12.02181,10.13505 0.23489,6.42546 -4.836583,10.39285 -11.262829,10.62776 -6.426278,0.23491 -17.227405,1.68693 -17.462287,-4.73854 -0.09145,-2.50179 -1.894065,-9.433 0.390109,-12.31227 3.582382,-4.51567 12.389038,-3.56855 16.313197,-3.712 z"
       id="path1435"
       inkscape:connector-curvature="0"
       sodipodi:nodetypes="ssssss" />
    <path
       style="fill:#008000;stroke-width:0.48795506"
       d="m 77.613131,162.11586 c 16.166586,0.80413 18.187886,5.56196 13.104836,16.80241 -6.246959,14.26484 -15.639888,29.56035 -15.087801,47.74515 0.170287,19.38505 5.634826,31.19223 8.385849,34.06099 19.021235,20.0664 17.951935,35.20209 7.039327,35.60099 C 80.652999,296.70565 74.763226,296.19315 54.869843,273.78618 40.918559,258.07211 24.94764,252.26272 24.131675,229.94103 23.294419,207.03689 32.527963,209.18526 42.160814,196.15505 56.896587,183.61447 59.836329,167.80134 77.613131,162.11586 Z"
       id="path1408"
       inkscape:connector-curvature="0"
       sodipodi:nodetypes="ccccssscc" />
    <path
       style="fill:#e9c6af;stroke-width:0.48795506"
       d="m 90.591912,270.42094 c 2.17419,-1.42323 8.096185,9.59322 8.402075,17.96107 0.30588,8.36786 -7.486656,8.04298 -14.219419,8.28909 -6.732753,0.24613 1.289262,1.527 0.983377,-6.84086 2.606967,-11.63643 2.193859,-17.34378 4.833907,-19.4093 z"
       id="path1411"
       inkscape:connector-curvature="0"
       sodipodi:nodetypes="cssccc" />
    <path
       sodipodi:nodetypes="csscc"
       inkscape:connector-curvature="0"
       id="path1414"
       d="m 86.318681,187.16595 c 2.272291,1.26069 7.427466,-8.83356 7.121576,-17.20144 -0.305883,-8.36785 -6.595787,-8.19965 -13.32854,-7.95354 -6.732764,0.2461 0.942547,2.6621 1.248432,11.02995 3.449638,11.41503 2.174723,12.25778 4.958532,14.12503 z"
       style="fill:#e9c6af;stroke-width:0.48795506" />
    <ellipse
       style="fill:#e9c6af;stroke-width:0.48795506"
       id="path1416"
       cx="-231.13976"
       cy="43.165558"
       rx="33.641045"
       ry="30.313906"
       transform="rotate(-92.093503)" />
    <path
       style="fill:#502d16;stroke-width:0.48795506"
       d="m 50.351496,195.79004 c 10.418982,-0.38085 19.938112,5.11612 18.464372,14.07012 -0.954276,5.79767 7.383806,11.63464 7.639855,18.63916 0.255049,6.97717 -6.022258,12.73794 -6.251524,18.5905 -0.340908,8.7015 -6.951247,15.55563 -17.394861,15.9374 -16.730735,0.6116 -30.843863,-13.94418 -31.522578,-32.51121 -0.678714,-18.56704 12.334001,-34.11439 29.064736,-34.72597 z"
       id="ellipse1418"
       inkscape:connector-curvature="0"
       sodipodi:nodetypes="sssssss" />
    <path
       style="fill:#e3dbdb;stroke-width:0.38408452"
       d="m 77.657054,244.04551 c -1.431614,-0.44752 -1.167827,-1.88573 -0.68834,-3.41961 0.479467,-1.53388 1.186195,-2.9328 2.617829,-2.48529 1.431623,0.44752 0.886163,1.69013 0.406676,3.22402 -0.479497,1.53388 -0.904552,3.12841 -2.336165,2.68088 z"
       id="path1421"
       inkscape:connector-curvature="0"
       sodipodi:nodetypes="cscsc" />
    <path
       sodipodi:nodetypes="cscsc"
       inkscape:connector-curvature="0"
       id="path1426"
       d="m 76.51916,212.91707 c -1.395118,0.55086 -1.027028,1.96597 -0.43683,3.46075 0.590179,1.49477 1.39716,2.83837 2.792298,2.28752 1.395129,-0.55085 0.760398,-1.75032 0.170199,-3.24511 -0.590209,-1.49477 -1.130549,-3.05401 -2.525667,-2.50316 z"
       style="fill:#e3dbdb;stroke-width:0.38408452" />
    <circle
       style="fill:#241c1c;stroke-width:0.38408452"
       id="path1428"
       cx="-244.05362"
       cy="70.361267"
       r="0.72746992"
       transform="rotate(-92.093503)" />
    <circle
       r="0.72746992"
       cy="70.292679"
       cx="-218.29936"
       id="circle1430"
       style="fill:#241c1c;stroke-width:0.38408452"
       transform="rotate(-92.093503)" />
    <path
       style="fill:#ac9393;stroke-width:0.38408452"
       d="m 73.273281,214.80449 c 0.160606,-0.006 5.053272,6.14144 5.308648,13.12753 0.255375,6.98609 -3.455197,12.59854 -3.615807,12.60449 -0.160586,0.006 3.293143,-5.50021 3.037768,-12.4863 -0.255375,-6.98609 -4.891259,-13.23978 -4.730609,-13.24572 z"
       id="path1432"
       inkscape:connector-curvature="0"
       sodipodi:nodetypes="cscsc" />
    <path
       style="fill:#aa4400;stroke-width:0.38408452"
       d="m 92.530594,256.13689 c 0,0 -1.357044,0.0496 -2.881634,-9.79486 0.286477,-13.40486 0.787583,-10.31723 0.787583,-10.31723 l 4.314584,1.20113 c 0,0 -0.25055,-1.54381 -1.05232,8.38569 0.78458,10.84213 2.66652,9.22036 2.66652,9.22036 z"
       id="rect1448"
       inkscape:connector-curvature="0"
       sodipodi:nodetypes="ccccccc" />
    <path
       sodipodi:nodetypes="ccccccc"
       inkscape:connector-curvature="0"
       id="path1451"
       d="m 92.530594,256.13689 c 0,0 -1.357044,0.0496 -2.881634,-9.79486 0.286477,-13.40486 0.787583,-10.31723 0.787583,-10.31723 l 4.314584,1.20113 c 0,0 -0.25055,-1.54381 -1.05232,8.38569 0.78458,10.84213 2.66652,9.22036 2.66652,9.22036 z"
       style="fill:#aa4400;stroke-width:0.38408452" />
    <path
       style="fill:#aa4400;stroke-width:0.38408452"
       d="m 91.548078,223.94863 c 0,0 -1.357034,0.0496 -2.881624,-9.79486 0.286477,-13.40486 0.787583,-10.31724 0.787583,-10.31724 l 4.31459,1.20114 c 0,0 -0.25057,-1.54382 -1.052322,8.38569 0.784572,10.84213 2.666512,9.22036 2.666512,9.22036 z"
       id="path1453"
       inkscape:connector-curvature="0"
       sodipodi:nodetypes="ccccccc" />
  </g>
</svg>
