<?xml version="1.0" encoding="UTF-8" standalone="no"?>
<!-- Created with Inkscape (http://www.inkscape.org/) -->

<svg
   xmlns:dc="http://purl.org/dc/elements/1.1/"
   xmlns:cc="http://creativecommons.org/ns#"
   xmlns:rdf="http://www.w3.org/1999/02/22-rdf-syntax-ns#"
   xmlns:svg="http://www.w3.org/2000/svg"
   xmlns="http://www.w3.org/2000/svg"
   xmlns:sodipodi="http://sodipodi.sourceforge.net/DTD/sodipodi-0.dtd"
   xmlns:inkscape="http://www.inkscape.org/namespaces/inkscape"
   width="512"
   height="512"
   viewBox="0 0 135.46666 135.46667"
   version="1.1"
   id="svg8"
   inkscape:version="0.92.3 (2405546, 2018-03-11)"
   sodipodi:docname="sleeping.svg"
   inkscape:export-filename="/home/dante/Desktop/ggj/bed_maze/Assets/Graphics/sleeping.png"
   inkscape:export-xdpi="96"
   inkscape:export-ydpi="96">
  <defs
     id="defs2" />
  <sodipodi:namedview
     id="base"
     pagecolor="#ffffff"
     bordercolor="#666666"
     borderopacity="1.0"
     inkscape:pageopacity="0.0"
     inkscape:pageshadow="2"
     inkscape:zoom="1.4"
     inkscape:cx="273.13122"
     inkscape:cy="279.0375"
     inkscape:document-units="mm"
     inkscape:current-layer="layer1"
     showgrid="false"
     units="px"
     inkscape:object-nodes="false"
     showguides="false"
     inkscape:window-width="1920"
     inkscape:window-height="1056"
     inkscape:window-x="0"
     inkscape:window-y="0"
     inkscape:window-maximized="1" />
  <metadata
     id="metadata5">
    <rdf:RDF>
      <cc:Work
         rdf:about="">
        <dc:format>image/svg+xml</dc:format>
        <dc:type
           rdf:resource="http://purl.org/dc/dcmitype/StillImage" />
        <dc:title></dc:title>
      </cc:Work>
    </rdf:RDF>
  </metadata>
  <g
     inkscape:label="Layer 1"
     inkscape:groupmode="layer"
     id="layer1"
     transform="translate(0,-161.53332)">
    <path
       sodipodi:nodetypes="ssssss"
       inkscape:connector-curvature="0"
       id="path302"
       d="m 11.408838,291.64642 c -0.418622,2.5106 0.932344,4.77894 3.558861,5.14113 2.626502,0.36218 4.509691,-1.46018 4.928266,-3.97078 0.418627,-2.5106 1.55612,-6.68597 -1.070396,-7.04816 -1.022649,-0.14101 -3.778234,-1.13935 -5.07493,-0.36447 -2.03368,1.21528 -2.08623,4.7092 -2.341796,6.24229 z"
       style="fill:#2b1100;stroke-width:0.14667024" />
    <path
       style="fill:#803300;stroke-width:0.13866416"
       d="m 12.098906,291.51501 c -0.40512,2.43047 0.82687,4.61593 3.251882,4.95034 2.424998,0.3344 4.178923,-1.43933 4.584113,-3.86978 0.405137,-2.43048 1.487127,-6.4752 -0.937883,-6.80961 -0.944209,-0.13023 -3.483849,-1.07901 -4.688061,-0.32182 -1.888573,1.18754 -1.962629,4.56672 -2.210054,6.05087 z"
       id="path304"
       inkscape:connector-curvature="0"
       sodipodi:nodetypes="ssssss" />
    <path
       sodipodi:nodetypes="ccccccc"
       inkscape:connector-curvature="0"
       id="path306"
       d="m 19.651673,293.83317 c 0,0 0.08549,-0.51326 -3.572507,-1.46772 -5.097285,-0.40288 -3.951083,-0.0948 -3.951083,-0.0948 l 0.243229,1.68367 c 0,0 -0.573087,-0.15403 3.23165,-0.0794 4.072788,0.71163 3.365215,1.36412 3.365215,1.36412 z"
       style="fill:#aa4400;stroke-width:0.14667024" />
    <path
       style="fill:#e9c6af;stroke-width:0.29021436"
       d="m 17.466164,280.75066 c 0,0 0.523678,0.8654 -1.060685,2.56685 l -2.338005,4.57846 c 0,0 2.7268,0.26031 3.957955,1.78403 l 2.353199,-1.66532 c 1.335731,-1.11658 2.487944,-0.73979 2.487944,-0.73979 0,0 -6.881659,-8.4679 -5.400408,-6.52423 z"
       id="path308"
       inkscape:connector-curvature="0"
       sodipodi:nodetypes="ccccccc" />
    <path
       style="fill:#2b1100;stroke-width:0.14667024"
       d="m 0.34396183,279.87043 c -0.41861398,2.51061 0.93235137,4.77895 3.55886837,5.14114 2.6264943,0.36218 4.509691,-1.46017 4.9282582,-3.97077 0.4186357,-2.5106 1.5561296,-6.68598 -1.0703873,-7.04816 -1.0226587,-0.14101 -3.7782424,-1.13937 -5.0749387,-0.36448 -2.0336793,1.21528 -2.08621374,4.70921 -2.341796,6.24228 z"
       id="path296"
       inkscape:connector-curvature="0"
       sodipodi:nodetypes="ssssss" />
    <path
       sodipodi:nodetypes="ssssss"
       inkscape:connector-curvature="0"
       id="path298"
       d="m 1.0340305,279.73903 c -0.40512066,2.43047 0.8268775,4.61593 3.2518875,4.95034 2.4249996,0.3344 4.1789176,-1.43933 4.5841146,-3.86979 0.4051285,-2.43047 1.4871284,-6.47519 -0.9378915,-6.80959 -0.9441922,-0.13022 -3.4838415,-1.07901 -4.6880454,-0.32182 -1.8885817,1.18754 -1.9626358,4.56672 -2.2100699,6.05086 z"
       style="fill:#803300;stroke-width:0.13866416" />
    <path
       style="fill:#aa4400;stroke-width:0.14667024"
       d="m 8.5868043,282.0572 c 0,0 0.085497,-0.51327 -3.5725146,-1.46774 -5.09727716,-0.40288 -3.9510749,-0.0948 -3.9510749,-0.0948 l 0.2432293,1.68366 c 0,0 -0.5730869,-0.15404 3.2316497,-0.0794 4.072795,0.71166 3.3652221,1.36414 3.3652221,1.36414 z"
       id="path300"
       inkscape:connector-curvature="0"
       sodipodi:nodetypes="ccccccc" />
    <path
       sodipodi:nodetypes="ccccccc"
       inkscape:connector-curvature="0"
       id="path292"
       d="m 6.4012876,268.97468 c 0,0 0.5236954,0.86542 -1.0606836,2.56686 l -2.3379984,4.57844 c 0,0 2.7267917,0.26031 3.957963,1.78405 l 2.3531842,-1.66533 c 1.3357322,-1.11658 2.4879502,-0.73977 2.4879502,-0.73977 0,0 -6.8816654,-8.46792 -5.4004154,-6.52425 z"
       style="fill:#e9c6af;stroke-width:0.29021436" />
    <path
       style="fill:#784421;stroke-width:0.36498061"
       d="m 4.9726074,269.01081 c 0,0 34.7693166,-32.50033 44.9795656,-36.43859 2.374943,5.25786 6.480534,8.7382 6.480534,8.7382 -17.978921,13.78268 -44.722529,34.60377 -44.722529,34.60377 -1.666176,-2.18633 -6.7375706,-6.90338 -6.7375706,-6.90338 z"
       id="rect285"
       inkscape:connector-curvature="0"
       sodipodi:nodetypes="ccccc" />
    <path
       sodipodi:nodetypes="ccccc"
       inkscape:connector-curvature="0"
       id="path290"
       d="m 22.758176,288.05607 c 0,0 35.123156,-32.11761 39.848831,-41.98812 -5.055751,-2.77937 -8.203907,-7.14489 -8.203907,-7.14489 -15.148193,16.84446 -37.999522,41.87556 -37.999522,41.87556 2.049156,1.83226 6.354598,7.25745 6.354598,7.25745 z"
       style="fill:#784421;stroke-width:0.36498061" />
    <path
       style="fill:#e9c6af;stroke-width:0.46166795"
       d="m 81.416529,202.74513 c 0,0 1.307211,0.93831 4.202899,-1.36239 l 4.328893,-3.26286 6.004913,6.49506 -3.3795,3.65391 c -1.937186,1.97923 -1.483134,3.85348 -1.483134,3.85348 0,0 -12.572025,-11.96843 -9.674071,-9.3772 z"
       id="rect267"
       inkscape:connector-curvature="0"
       sodipodi:nodetypes="ccccccc" />
    <ellipse
       style="fill:#e9c6af;stroke-width:0.34410697"
       id="path10"
       cx="-54.574623"
       cy="208.59048"
       rx="15.647066"
       ry="15.636987"
       transform="rotate(-42.754429)" />
    <path
       style="fill:#2b1100;stroke-width:0.38408452"
       d="m 229.06085,197.35325 c 6.63817,-0.24266 12.18318,4.03914 12.43757,10.99851 0.2544,6.95938 -4.97735,11.24688 -11.61552,11.48954 -6.63819,0.24266 -17.79356,1.79547 -18.04796,-5.16391 -0.0991,-2.70968 -1.9739,-10.21966 0.38048,-13.3338 3.69249,-4.88403 12.79188,-3.84217 16.84543,-3.99034 z"
       id="path1444"
       inkscape:connector-curvature="0"
       sodipodi:nodetypes="ssssss" />
    <path
       sodipodi:nodetypes="ssssss"
       inkscape:connector-curvature="0"
       id="path1446"
       d="m 228.5385,199.10526 c 6.42625,-0.23491 11.78693,3.70959 12.02181,10.13505 0.23488,6.42546 -4.83658,10.39285 -11.26284,10.62776 -6.42626,0.23491 -17.2274,1.68693 -17.46228,-4.73854 -0.0914,-2.50179 -1.89407,-9.433 0.39011,-12.31227 3.58238,-4.51567 12.38904,-3.56855 16.3132,-3.712 z"
       style="fill:#803300;stroke-width:0.36311898" />
    <path
       sodipodi:nodetypes="ssssss"
       inkscape:connector-curvature="0"
       id="path1438"
       d="m 230.43108,229.52734 c 6.63817,-0.24266 12.18318,4.03914 12.43758,10.99851 0.2544,6.95938 -4.97737,11.24688 -11.61554,11.48954 -6.63817,0.24266 -17.79354,1.79547 -18.04794,-5.16391 -0.099,-2.70968 -1.97391,-10.21966 0.38047,-13.33379 3.69249,-4.88404 12.79187,-3.84218 16.84543,-3.99035 z"
       style="fill:#2b1100;stroke-width:0.38408452" />
    <path
       style="fill:#803300;stroke-width:0.36311898"
       d="m 229.90873,231.27935 c 6.42625,-0.23491 11.78693,3.70959 12.02181,10.13505 0.23489,6.42546 -4.83658,10.39285 -11.26283,10.62776 -6.42628,0.23491 -17.2274,1.68693 -17.46228,-4.73854 -0.0915,-2.50179 -1.89407,-9.433 0.39011,-12.31227 3.58238,-4.51567 12.38903,-3.56855 16.31319,-3.712 z"
       id="path1435"
       inkscape:connector-curvature="0"
       sodipodi:nodetypes="ssssss" />
    <path
       style="fill:#008000;stroke-width:0.48795506"
       d="m 219.04265,157.70128 c 16.16659,0.80413 18.18789,5.56196 13.10484,16.80241 -6.24696,14.26484 -15.63989,29.56035 -15.0878,47.74515 0.17028,19.38505 5.63482,31.19223 8.38585,34.06099 19.02123,20.0664 17.95193,35.20209 7.03932,35.60099 -10.40234,0.38025 -16.29211,-0.13225 -36.1855,-22.53922 -13.95128,-15.71407 -29.9222,-21.52346 -30.73816,-43.84515 -0.83726,-22.90414 8.39628,-20.75577 18.02913,-33.78598 14.73578,-12.54058 17.67552,-28.35371 35.45232,-34.03919 z"
       id="path1408"
       inkscape:connector-curvature="0"
       sodipodi:nodetypes="ccccssscc" />
    <path
       style="fill:#e9c6af;stroke-width:0.48795506"
       d="m 232.02143,266.00636 c 2.17419,-1.42323 8.09619,9.59322 8.40208,17.96107 0.30588,8.36786 -7.48666,8.04298 -14.21942,8.28909 -6.73275,0.24613 1.28926,1.527 0.98338,-6.84086 2.60696,-11.63643 2.19386,-17.34378 4.8339,-19.4093 z"
       id="path1411"
       inkscape:connector-curvature="0"
       sodipodi:nodetypes="cssccc" />
    <path
       sodipodi:nodetypes="csscc"
       inkscape:connector-curvature="0"
       id="path1414"
       d="m 227.7482,182.75137 c 2.27229,1.26069 7.42747,-8.83356 7.12158,-17.20144 -0.30589,-8.36785 -6.59579,-8.19965 -13.32854,-7.95354 -6.73276,0.2461 0.94255,2.6621 1.24843,11.02995 3.44964,11.41503 2.17472,12.25778 4.95853,14.12503 z"
       style="fill:#e9c6af;stroke-width:0.48795506" />
    <ellipse
       style="fill:#e9c6af;stroke-width:0.48795506"
       id="path1416"
       cx="-231.89459"
       cy="184.66196"
       rx="33.641041"
       ry="30.313906"
       transform="rotate(-92.093503)" />
    <path
       style="fill:#502d16;stroke-width:0.48795506"
       d="m 191.78102,191.37546 c 10.41898,-0.38085 19.93811,5.11612 18.46437,14.07012 -0.95428,5.79767 7.38381,11.63464 7.63985,18.63916 0.25505,6.97717 -6.02225,12.73794 -6.25152,18.5905 -0.34091,8.7015 -6.95125,15.55563 -17.39486,15.9374 -16.73074,0.6116 -30.84386,-13.94418 -31.52258,-32.51121 -0.67871,-18.56704 12.334,-34.11439 29.06474,-34.72597 z"
       id="ellipse1418"
       inkscape:connector-curvature="0"
       sodipodi:nodetypes="sssssss" />
    <path
       style="fill:#e3dbdb;stroke-width:0.38408452"
       d="m 219.08658,239.63093 c -1.43162,-0.44752 -1.16783,-1.88573 -0.68834,-3.41961 0.47946,-1.53388 1.18619,-2.9328 2.61782,-2.48529 1.43163,0.44752 0.88617,1.69013 0.40668,3.22402 -0.4795,1.53388 -0.90455,3.12841 -2.33616,2.68088 z"
       id="path1421"
       inkscape:connector-curvature="0"
       sodipodi:nodetypes="cscsc" />
    <path
       sodipodi:nodetypes="cscsc"
       inkscape:connector-curvature="0"
       id="path1426"
       d="m 217.94868,208.50249 c -1.39512,0.55086 -1.02703,1.96597 -0.43683,3.46075 0.59018,1.49477 1.39716,2.83837 2.7923,2.28752 1.39513,-0.55085 0.7604,-1.75032 0.1702,-3.24511 -0.59021,-1.49477 -1.13055,-3.05401 -2.52567,-2.50316 z"
       style="fill:#e3dbdb;stroke-width:0.38408452" />
    <circle
       style="fill:#241c1c;stroke-width:0.38408452"
       id="path1428"
       cx="-244.80844"
       cy="211.85767"
       r="0.72746992"
       transform="rotate(-92.093503)" />
    <circle
       r="0.72746992"
       cy="211.78908"
       cx="-219.0542"
       id="circle1430"
       style="fill:#241c1c;stroke-width:0.38408452"
       transform="rotate(-92.093503)" />
    <path
       style="fill:#ac9393;stroke-width:0.38408452"
       d="m 214.7028,210.38991 c 0.16061,-0.006 5.05328,6.14144 5.30865,13.12753 0.25537,6.98609 -3.4552,12.59854 -3.61581,12.60449 -0.16058,0.006 3.29315,-5.50021 3.03777,-12.4863 -0.25537,-6.98609 -4.89126,-13.23978 -4.73061,-13.24572 z"
       id="path1432"
       inkscape:connector-curvature="0"
       sodipodi:nodetypes="cscsc" />
    <path
       style="fill:#aa4400;stroke-width:0.38408452"
       d="m 233.96011,251.72231 c 0,0 -1.35704,0.0496 -2.88163,-9.79486 0.28648,-13.40486 0.78758,-10.31723 0.78758,-10.31723 l 4.31459,1.20113 c 0,0 -0.25055,-1.54381 -1.05232,8.38569 0.78458,10.84213 2.66652,9.22036 2.66652,9.22036 z"
       id="rect1448"
       inkscape:connector-curvature="0"
       sodipodi:nodetypes="ccccccc" />
    <path
       sodipodi:nodetypes="ccccccc"
       inkscape:connector-curvature="0"
       id="path1451"
       d="m 233.96011,251.72231 c 0,0 -1.35704,0.0496 -2.88163,-9.79486 0.28648,-13.40486 0.78758,-10.31723 0.78758,-10.31723 l 4.31459,1.20113 c 0,0 -0.25055,-1.54381 -1.05232,8.38569 0.78458,10.84213 2.66652,9.22036 2.66652,9.22036 z"
       style="fill:#aa4400;stroke-width:0.38408452" />
    <path
       style="fill:#aa4400;stroke-width:0.38408452"
       d="m 232.9776,219.53405 c 0,0 -1.35703,0.0496 -2.88162,-9.79486 0.28647,-13.40486 0.78758,-10.31724 0.78758,-10.31724 l 4.31459,1.20114 c 0,0 -0.25057,-1.54382 -1.05232,8.38569 0.78457,10.84213 2.66651,9.22036 2.66651,9.22036 z"
       id="path1453"
       inkscape:connector-curvature="0"
       sodipodi:nodetypes="ccccccc" />
    <path
       style="fill:#502d16;stroke-width:0.34410697"
       d="m 112.56192,177.1719 c 1.84685,1.99759 5.37409,7.59336 3.76922,9.74738 -0.99646,1.33741 -4.30103,-5.77265 -6.44124,-4.8381 -1.51767,0.66272 -3.6468,2.83821 -4.48359,3.89451 -3.39647,4.28736 -7.811559,1.12963 -7.811559,1.12963 -6.021791,6.19805 -0.04858,1.86822 -7.659464,7.08142 -7.129418,4.88341 -6.133188,-9.96756 0.212114,-15.834 6.345295,-5.86645 16.551849,-7.52205 22.414519,-1.18084 z"
       id="circle236"
       inkscape:connector-curvature="0"
       sodipodi:nodetypes="ssssssss" />
    <ellipse
       style="fill:#241c1c;stroke-width:0.42167127"
       id="path243"
       cx="-54.627201"
       cy="206.66382"
       rx="4.824512"
       ry="3.2577055"
       transform="rotate(-42.754429)" />
    <ellipse
       ry="2.7364728"
       rx="4.3029432"
       cy="207.18506"
       cx="-54.887989"
       id="ellipse245"
       style="fill:#e9c6af;stroke-width:0.36498061"
       transform="rotate(-42.754429)" />
    <path
       style="fill:#e3dbdb;stroke-width:0.52982706"
       d="m 106.43793,192.47849 c -0.89787,1.86466 0.79983,2.95273 2.79718,3.91343 1.99731,0.9607 4.07278,1.56525 4.97066,-0.29944 0.89791,-1.86466 -0.86808,-2.48462 -2.86544,-3.44531 -1.99736,-0.96069 -4.00451,-2.03335 -4.9024,-0.16868 z"
       id="path255"
       inkscape:connector-curvature="0"
       sodipodi:nodetypes="cscsc" />
    <ellipse
       transform="matrix(-0.70524425,-0.70896442,0.70899759,-0.7052109,0,0)"
       style="fill:#241c1c;stroke-width:0.52982706"
       id="circle257"
       cx="-215.89566"
       cy="-59.201542"
       rx="1.0031891"
       ry="1.003834" />
    <path
       style="fill:#28170b;stroke-width:0.36498061"
       d="m 110.28458,201.78064 4.60363,-4.25623 0.31795,0.208 c 0,0 0.49126,-0.99105 -1.64274,3.49166 -0.87933,2.44435 -2.20438,3.07683 -1.77758,2.1803 z"
       id="rect259"
       inkscape:connector-curvature="0"
       sodipodi:nodetypes="cccccc" />
    <path
       sodipodi:nodetypes="cccccc"
       inkscape:connector-curvature="0"
       id="path262"
       d="m 110.33563,201.85891 4.35199,-4.02357 0.26979,0.16364 c 0,0 0.4972,-0.90144 -1.67332,3.17062 -0.93081,2.20306 -2.14728,2.84007 -1.71318,2.02568 z"
       style="fill:#e9c6af;stroke-width:0.32191789" />
    <path
       style="fill:#008000;stroke-width:0.36498061"
       d="m 47.306707,231.82366 c 6.431274,-18.01365 32.933481,-35.06223 32.933481,-35.06223 0,0 2.219625,2.13358 4.047505,5.3047 1.06521,1.84798 1.340338,4.32427 2.692214,6.2108 1.499234,1.4464 3.326061,0.62276 4.530652,1.48205 4.078403,2.9094 5.920132,4.82782 5.920132,4.82782 0,0 -24.050154,29.68877 -33.582909,32.82322 -12.952528,0.97211 -16.541075,-15.58636 -16.541075,-15.58636 z"
       id="rect264"
       inkscape:connector-curvature="0"
       sodipodi:nodetypes="ccscsccc" />
    <path
       style="fill:#008000;stroke-width:0.36498061"
       d="m 99.157936,238.5517 c 0,0 5.304424,-1.17733 8.468004,-11.20082 -3.23042,-6.95149 -11.965097,-14.67046 -11.965097,-14.67046 l -10.914722,10.09102 z"
       id="rect270"
       inkscape:connector-curvature="0"
       sodipodi:nodetypes="ccccc" />
    <path
       style="fill:#008000;stroke-width:0.36498061"
       d="m 78.728231,258.32697 c 8.655436,-4.27544 23.457059,-21.68685 23.457059,-21.68685 L 95.550724,229.464 72.093665,251.15086 c 0,0 -1.759779,2.51431 1.439376,5.59045 2.005467,2.93746 5.19519,1.58566 5.19519,1.58566 z"
       id="rect273"
       inkscape:connector-curvature="0"
       sodipodi:nodetypes="cccccc" />
    <path
       style="fill:#e9c6af;stroke-width:0.36498061"
       d="m 78.337976,258.86523 1.24466,-1.15073 -6.531514,-7.4488 -1.634909,1.68899 c 0,0 -1.048998,2.03095 1.789024,4.90856 0.833621,2.2462 5.132747,2.00199 5.132747,2.00199 z"
       id="rect276"
       inkscape:connector-curvature="0"
       sodipodi:nodetypes="cccccc" />
    <path
       sodipodi:nodetypes="ccccc"
       inkscape:connector-curvature="0"
       id="path279"
       d="m 67.007789,182.08407 c 0,0 -5.304446,1.17735 -8.468015,11.20085 3.23043,6.95149 11.965102,14.67046 11.965102,14.67046 l 10.914733,-10.09104 z"
       style="fill:#008000;stroke-width:0.36498061" />
    <path
       sodipodi:nodetypes="cccccc"
       inkscape:connector-curvature="0"
       id="path281"
       d="m 87.437499,162.30882 c -8.655446,4.27545 -23.457065,21.68685 -23.457065,21.68685 l 6.634558,7.17611 23.457064,-21.68686 c 0,0 1.759769,-2.51432 -1.439378,-5.59046 -2.00546,-2.93746 -5.195179,-1.58564 -5.195179,-1.58564 z"
       style="fill:#008000;stroke-width:0.36498061" />
    <path
       sodipodi:nodetypes="cccccc"
       inkscape:connector-curvature="0"
       id="path283"
       d="m 87.827736,161.77054 -1.244647,1.15071 6.531516,7.44881 1.634917,-1.68898 c 0,0 1.048992,-2.03095 -1.789022,-4.90855 -0.833654,-2.2462 -5.132772,-2.002 -5.132772,-2.002 z"
       style="fill:#e9c6af;stroke-width:0.36498061" />
  </g>
</svg>
